# xmcd
#
# Track frame offsets:
#	150
#	21661
#	40640
#	60879
#	78320
#	91288
#	113007
#	122572
#	141858
#
# Disc length: 2565 seconds
#
# Revision: 1
# Processed by: cddbd v1.5.2PL0 Copyright (c) Steve Scherf et al.
# Submitted via: audiograbber 1.83.01
#
DISCID=690a0309
DTITLE=Greyline - Behind the Masquerade
DYEAR=2010
DGENRE=Metal
TTITLE0=Flooding The Mountains
TTITLE1=Nomads On The Run
TTITLE2=Where Death Do Us Start
TTITLE3=Diamonds In Our Dreams
TTITLE4=Hunt Of The Coyote
TTITLE5=Riget
TTITLE6=Ravens Ahead
TTITLE7=Knives and Smiles
TTITLE8=Mirrors
EXTD=
EXTT0=
EXTT1=
EXTT2=
EXTT3=
EXTT4=
EXTT5=
EXTT6=
EXTT7=
EXTT8=
PLAYORDER=
